<?xml version="1.0" encoding="iso-8859-1"?>
<!-- Generator: Adobe Illustrator 19.0.0, SVG Export Plug-In . SVG Version: 6.00 Build 0)  -->
<svg version="1.1" id="Capa_1" xmlns="http://www.w3.org/2000/svg" xmlns:xlink="http://www.w3.org/1999/xlink" x="0px" y="0px"
	 viewBox="0 0 512 512" style="enable-background:new 0 0 512 512;" xml:space="preserve">
<path style="fill:#F7D139;" d="M512,256c0,140.487-113.677,256-256,256C114.047,512,0,396.835,0,256C0,114.615,114.615,0,256,0
	C397.649,0,512,114.857,512,256z"/>
<path style="fill:#464646;" d="M152.464,335.509v63.43c0,9.193-3.725,17.519-9.745,23.539c-1.311,1.311-2.718,2.501-4.234,3.584
	c-3.812,2.718-8.218,4.656-12.993,5.576c-2.046,0.39-4.157,0.595-6.323,0.595c-2.154,0-4.266-0.205-6.313-0.595
	c-4.775-0.921-9.182-2.848-12.993-5.566c-8.467-6.042-13.989-15.95-13.989-27.135v-63.43c0-11.185,5.522-21.093,13.989-27.134
	c3.812-2.718,8.219-4.645,12.993-5.566c2.046-0.39,4.158-0.595,6.313-0.595c2.166,0,4.277,0.205,6.323,0.595
	c4.776,0.921,9.182,2.858,12.993,5.576C146.953,314.426,152.464,324.323,152.464,335.509z"/>
<g>
	<path style="fill:#2D2D2D;" d="M112.856,302.808v128.829c-4.775-0.921-9.182-2.848-12.993-5.566V308.374
		C103.675,305.656,108.082,303.729,112.856,302.808z"/>
	<path style="fill:#2D2D2D;" d="M138.486,308.384v117.676c-3.812,2.718-8.218,4.656-12.993,5.576V302.808
		C130.267,303.729,134.674,305.667,138.486,308.384z"/>
</g>
<path style="fill:#464646;" d="M319.938,335.509v63.43c0,9.193-3.725,17.519-9.745,23.539c-1.311,1.311-2.718,2.501-4.234,3.584
	c-3.812,2.718-8.218,4.656-12.993,5.576c-2.046,0.39-4.157,0.595-6.323,0.595c-2.155,0-4.266-0.205-6.313-0.595
	c-4.775-0.921-9.182-2.848-12.993-5.566c-8.467-6.042-13.989-15.95-13.989-27.135v-63.43c0-11.185,5.522-21.093,13.989-27.134
	c3.812-2.718,8.219-4.645,12.993-5.566c2.046-0.39,4.158-0.595,6.313-0.595c2.166,0,4.277,0.205,6.323,0.595
	c4.776,0.921,9.182,2.858,12.993,5.576C314.426,314.426,319.938,324.323,319.938,335.509z"/>
<g>
	<path style="fill:#2D2D2D;" d="M280.329,302.808v128.829c-4.775-0.921-9.182-2.848-12.993-5.566V308.374
		C271.148,305.656,275.555,303.729,280.329,302.808z"/>
	<path style="fill:#2D2D2D;" d="M305.959,308.384v117.676c-3.812,2.718-8.218,4.656-12.993,5.576V302.808
		C297.741,303.729,302.148,305.667,305.959,308.384z"/>
</g>
<g>
	<path style="fill:#6DA0E8;" d="M362.875,312.468v63.05H42.936v-63.05c0-26.832,21.754-48.596,48.596-48.596h222.749
		C341.123,263.872,362.875,285.636,362.875,312.468z"/>
	<path style="fill:#6DA0E8;" d="M266.064,162.037H139.21c-15.91,0-30.207,9.715-36.066,24.506l-35.758,90.268H337.89l-35.758-90.268
		C296.272,171.751,281.974,162.037,266.064,162.037z"/>
	
		<rect x="322.036" y="249.928" transform="matrix(0.7658 -0.6431 0.6431 0.7658 -85.5298 281.2523)" style="fill:#6DA0E8;" width="42.655" height="16.243"/>
	<path style="fill:#6DA0E8;" d="M340.471,241.805c0,10.558,8.565,19.122,19.132,19.122h19.046c5.284,0,10.07-2.144,13.535-5.599
		c3.454-3.465,5.597-8.25,5.597-13.524c0-0.26,0-0.519-0.021-0.78c-0.4-10.211-8.803-18.353-19.111-18.353h-19.046
		c-1.873,0-3.681,0.271-5.392,0.78c-3.118,0.909-5.901,2.587-8.131,4.829C342.615,231.735,340.471,236.521,340.471,241.805z"/>
</g>
<path style="fill:#80B3ED;" d="M354.211,223.452c0.4,10.211,8.803,18.353,19.101,18.353h19.056c1.873,0,3.682-0.271,5.392-0.78
	c-0.4-10.211-8.803-18.353-19.111-18.353h-19.046C357.73,222.672,355.922,222.943,354.211,223.452z"/>
<path style="fill:#DCD2CD;" d="M292.073,244.328H113.198c-4.635,0-7.807-4.678-6.096-8.976l16.177-40.832
	c2.599-6.584,8.857-10.828,15.927-10.828h126.859c7.07,0,13.329,4.245,15.927,10.828l14.942,37.714l1.235,3.118
	C299.88,239.65,296.707,244.328,292.073,244.328z"/>
<path style="fill:#EBE1DC;" d="M296.934,232.233H134.496c-4.635,0-7.807-4.667-6.096-8.976l15.679-39.565h121.986
	c7.07,0,13.329,4.245,15.927,10.828L296.934,232.233z"/>
<path style="fill:#80B3ED;" d="M362.875,312.468v63.05H65.675v-63.05c0-26.832,21.754-48.596,48.596-48.596h200.012
	C341.123,263.872,362.875,285.636,362.875,312.468z"/>
<path style="fill:#5085D4;" d="M377.233,368.848c0,0.173,0,0.357-0.011,0.531c-0.13,4.873-2.166,9.269-5.381,12.484
	c-3.336,3.334-7.926,5.392-13.015,5.392H46.986c-10.168,0-18.407-8.24-18.407-18.407c0-5.089,2.058-9.68,5.392-13.015
	c3.215-3.215,7.612-5.252,12.484-5.382c0.173-0.011,0.357-0.011,0.531-0.011h311.841
	C368.993,350.441,377.233,358.68,377.233,368.848z"/>
<path style="fill:#6092E0;" d="M377.233,368.848c0,0.173,0,0.357-0.011,0.531c-0.173,0.011-0.357,0.011-0.531,0.011H64.852
	c-10.168,0-18.407-8.24-18.407-18.407c0-0.173,0-0.357,0.011-0.531c0.173-0.011,0.357-0.011,0.531-0.011h311.841
	C368.993,350.441,377.233,358.68,377.233,368.848z"/>
<g>
	
		<rect x="41.114" y="249.927" transform="matrix(-0.7658 -0.6431 0.6431 -0.7658 -55.6901 495.8142)" style="fill:#6DA0E8;" width="42.655" height="16.243"/>
	<path style="fill:#6DA0E8;" d="M65.341,241.805c0,10.558-8.565,19.122-19.132,19.122H27.162c-5.284,0-10.07-2.144-13.535-5.599
		c-3.454-3.465-5.597-8.25-5.597-13.524c0-0.26,0-0.519,0.021-0.78c0.4-10.211,8.803-18.353,19.111-18.353h19.046
		c1.873,0,3.681,0.271,5.392,0.78c3.118,0.909,5.901,2.587,8.131,4.829C63.198,231.735,65.341,236.521,65.341,241.805z"/>
</g>
<path style="fill:#80B3ED;" d="M51.6,223.452c-0.4,10.211-8.803,18.353-19.101,18.353H13.443c-1.873,0-3.682-0.271-5.392-0.78
	c0.4-10.211,8.803-18.353,19.111-18.353h19.046C48.082,222.672,49.889,222.943,51.6,223.452z"/>
<path style="fill:#F2C230;" d="M133.08,313.271c0,8.543-4.645,16.003-11.553,19.999c-3.4,1.971-7.341,3.096-11.553,3.096
	c-12.755,0-23.106-10.341-23.106-23.096c0-12.766,10.351-23.106,23.106-23.106c4.212,0,8.153,1.126,11.553,3.096
	C128.435,297.256,133.08,304.717,133.08,313.271z"/>
<path style="fill:#FFE13C;" d="M133.08,313.271c0,8.543-4.645,16.003-11.553,19.999c-6.908-3.985-11.553-11.456-11.553-19.999
	c0-8.554,4.645-16.025,11.553-20.01C128.435,297.256,133.08,304.717,133.08,313.271z"/>
<path style="fill:#F2C230;" d="M318.945,313.271c0,8.543-4.645,16.003-11.553,19.999c-3.4,1.971-7.341,3.096-11.553,3.096
	c-12.755,0-23.106-10.341-23.106-23.096c0-12.766,10.351-23.106,23.106-23.106c4.212,0,8.153,1.126,11.553,3.096
	C314.3,297.256,318.945,304.717,318.945,313.271z"/>
<path style="fill:#FFE13C;" d="M318.945,313.271c0,8.543-4.645,16.003-11.553,19.999c-6.908-3.985-11.553-11.456-11.553-19.999
	c0-8.554,4.645-16.025,11.553-20.01C314.3,297.256,318.945,304.717,318.945,313.271z"/>
<g>
	<path style="fill:#5085D4;" d="M258.128,302.647c0,3.595-2.913,6.497-6.497,6.497h-97.45c-3.584,0-6.497-2.901-6.497-6.497
		c0-3.584,2.913-6.497,6.497-6.497h97.45C255.215,296.149,258.128,299.062,258.128,302.647z"/>
	<path style="fill:#5085D4;" d="M258.128,323.88c0,3.584-2.913,6.497-6.497,6.497h-97.45c-3.584,0-6.497-2.913-6.497-6.497
		s2.913-6.497,6.497-6.497h97.45C255.215,317.384,258.128,320.296,258.128,323.88z"/>
</g>
<g>
	<path style="fill:#6092E0;" d="M258.128,302.647c0,3.595-2.913,6.497-6.497,6.497h-75.253c-3.584,0-6.497-2.901-6.497-6.497
		c0-3.584,2.913-6.497,6.497-6.497h75.253C255.215,296.149,258.128,299.062,258.128,302.647z"/>
	<path style="fill:#6092E0;" d="M258.128,323.88c0,3.584-2.913,6.497-6.497,6.497h-75.253c-3.584,0-6.497-2.913-6.497-6.497
		s2.913-6.497,6.497-6.497h75.253C255.215,317.384,258.128,320.296,258.128,323.88z"/>
</g>
<path style="fill:#5A5555;" d="M440.17,23.852v409.965c-7.775,8.07-16.077,15.624-24.864,22.62V23.852
	c0-6.859,5.563-12.432,12.432-12.432C434.596,11.42,440.17,16.994,440.17,23.852z"/>
<path style="fill:#6DA0E8;" d="M493.582,59.999v121.242c0,13.338-10.809,24.147-24.147,24.147h-83.398
	c-13.338,0-24.147-10.809-24.147-24.147V59.999c0-13.327,10.809-24.147,24.147-24.147h83.398
	C482.773,35.852,493.582,46.672,493.582,59.999z"/>
<path style="fill:#80B3ED;" d="M493.582,59.999v116.669c-3.055,1.633-6.542,2.56-10.251,2.56h-75.549
	c-12.084,0-21.872-9.798-21.872-21.872V47.536c0-4.298,1.233-8.302,3.382-11.684h80.143
	C482.773,35.852,493.582,46.672,493.582,59.999z"/>
<path style="fill:#EBE1DC;" d="M393.623,64.701c0-3.225,2.918-6.143,7.526-6.143h30.873c19.507,0,34.866,9.369,34.866,34.559v0.922
	c0,25.19-15.821,34.866-36.095,34.866h-17.202v35.634c0,4.147-5.069,6.298-9.984,6.298c-5.068,0-9.983-2.15-9.983-6.298
	L393.623,64.701L393.623,64.701z M413.592,76.068v37.171h17.201c9.984,0,16.129-5.683,16.129-17.664v-1.844
	c0-11.981-6.143-17.664-16.129-17.664C430.793,76.068,413.592,76.068,413.592,76.068z"/>
<g>
</g>
<g>
</g>
<g>
</g>
<g>
</g>
<g>
</g>
<g>
</g>
<g>
</g>
<g>
</g>
<g>
</g>
<g>
</g>
<g>
</g>
<g>
</g>
<g>
</g>
<g>
</g>
<g>
</g>
</svg>
