<?xml version="1.0" encoding="iso-8859-1"?>
<!-- Generator: Adobe Illustrator 21.0.0, SVG Export Plug-In . SVG Version: 6.00 Build 0)  -->
<svg version="1.1" id="Capa_1" xmlns="http://www.w3.org/2000/svg" xmlns:xlink="http://www.w3.org/1999/xlink" x="0px" y="0px"
	 viewBox="0 0 512 512" style="enable-background:new 0 0 512 512;" xml:space="preserve">
<linearGradient id="SVGID_1_" gradientUnits="userSpaceOnUse" x1="148.4784" y1="491.1357" x2="337.1884" y2="302.4228" gradientTransform="matrix(1.0039 0 0 -1.0039 0.1922 516.5609)">
	<stop  offset="0" style="stop-color:#A7F3CE"/>
	<stop  offset="1" style="stop-color:#61DB99"/>
</linearGradient>
<path style="fill:url(#SVGID_1_);" d="M412.52,243.468H82.452c-39.956,0-72.348-32.392-72.348-72.348V72.348
	C10.104,32.392,42.496,0,82.452,0H412.52c39.956,0,72.348,32.392,72.348,72.348v98.773
	C484.868,211.078,452.478,243.468,412.52,243.468z"/>
<linearGradient id="SVGID_2_" gradientUnits="userSpaceOnUse" x1="207.0267" y1="447.6666" x2="387.6167" y2="197.7816" gradientTransform="matrix(1.0039 0 0 -1.0039 0.1922 516.5609)">
	<stop  offset="0" style="stop-color:#A7F3CE"/>
	<stop  offset="1" style="stop-color:#61DB99"/>
</linearGradient>
<path style="fill:url(#SVGID_2_);" d="M397.656,232.504H97.317c-36.358,0-65.831-29.474-65.831-65.831V76.796
	c0-36.358,29.474-65.831,65.831-65.831h300.339c36.358,0,65.831,29.474,65.831,65.831v89.877
	C463.488,203.03,434.014,232.504,397.656,232.504z"/>
<g>
	<path style="fill:#FFFFFF;" d="M82.114,189.01V53.434c0-2.183,0.954-3.923,2.867-5.222c1.91-1.296,4.163-1.945,6.758-1.945h37.274
		c12.56,0,22.595,2.595,30.106,7.782c7.507,5.19,11.264,14.406,11.264,27.648c0,16.931-5.805,27.99-17.408,33.177
		c6.963,2.733,12.218,6.656,15.77,11.776c3.549,5.121,5.325,12.595,5.325,22.427v3.891c0,15.021-3.686,25.942-11.059,32.767
		c-7.373,6.829-17.273,10.24-29.696,10.24H91.739c-2.867,0-5.19-0.682-6.963-2.048C82.999,192.561,82.114,190.924,82.114,189.01z
		 M103.618,106.271h24.371c13.789,0,20.685-7.029,20.685-21.093c0-13.107-7.033-19.661-21.094-19.661h-23.961v40.754H103.618z
		 M103.618,176.722h25.6c15.427,0,23.142-8.463,23.142-25.395v-3.277c0-8.735-1.946-15.018-5.837-18.842
		c-3.891-3.821-9.661-5.734-17.306-5.734h-25.6V176.722z"/>
	<path style="fill:#FFFFFF;" d="M194.752,151.532V53.229c0-2.319,1.056-4.06,3.174-5.221c2.115-1.159,4.675-1.741,7.68-1.741
		c3.002,0,5.562,0.582,7.68,1.741c2.115,1.162,3.174,2.902,3.174,5.221v98.303c0,8.877,2.183,15.498,6.554,19.865
		c4.368,4.371,10.512,6.555,18.432,6.555c16.794,0,25.19-8.806,25.19-26.419V53.229c0-2.319,1.056-4.06,3.174-5.221
		c2.115-1.159,4.675-1.741,7.68-1.741c3.002,0,5.562,0.582,7.68,1.741c2.115,1.162,3.174,2.902,3.174,5.221v98.303
		c0,15.701-4.269,27.237-12.8,34.61c-8.534,7.373-19.901,11.059-34.098,11.059c-14.064,0-25.363-3.686-33.894-11.059
		C199.016,178.77,194.752,167.234,194.752,151.532z"/>
</g>
<linearGradient id="SVGID_3_" gradientUnits="userSpaceOnUse" x1="388.0688" y1="259.0332" x2="299.1388" y2="347.9632" gradientTransform="matrix(1.0039 0 0 -1.0039 0.1922 516.5609)">
	<stop  offset="0" style="stop-color:#61DB99;stop-opacity:0"/>
	<stop  offset="1" style="stop-color:#009E74"/>
</linearGradient>
<path style="fill:url(#SVGID_3_);" d="M412.52,243.468c14.082,0,27.214-4.037,38.331-10.997c-4.59-2.419-9.619-4.159-14.974-5.052
	l-9.239-1.225l-89.495-89.469c-4.731-5.606-11.806-9.17-19.717-9.17l0,0c-14.247,0-25.796,11.549-25.796,25.796v90.118H412.52
	V243.468z"/>
<path style="fill:#FFFFFF;" d="M303.907,55.277c0-2.458,1.501-4.573,4.506-6.348c3.002-1.773,6.074-2.662,9.216-2.662
	c3.002,0,5.392,1.637,7.168,4.914l33.791,64.922l33.587-64.922c1.638-3.277,4.026-4.914,7.168-4.914
	c3.139,0,6.176,0.889,9.114,2.662c2.934,1.776,4.403,3.891,4.403,6.348c0,1.229-0.205,2.253-0.614,3.072l-42.394,76.389
	c-0.275,0.819-0.41,1.571-0.41,2.253v51.813c0,2.186-1.094,3.926-3.277,5.222c-2.186,1.299-4.71,1.946-7.578,1.946
	c-3.005,0-5.565-0.647-7.68-1.946c-2.118-1.296-3.174-3.037-3.174-5.222v-51.813c0-0.272-0.205-1.024-0.614-2.253l-42.393-76.389
	C304.179,57.258,303.907,56.235,303.907,55.277z"/>
<linearGradient id="SVGID_4_" gradientUnits="userSpaceOnUse" x1="411.7474" y1="280.3918" x2="267.3774" y2="424.7618" gradientTransform="matrix(1.0039 0 0 -1.0039 0.1922 516.5609)">
	<stop  offset="0" style="stop-color:#C3C3C3;stop-opacity:0"/>
	<stop  offset="1" style="stop-color:#777777"/>
</linearGradient>
<path style="fill:url(#SVGID_4_);" d="M347.733,147.312v41.493c0,2.186,1.056,3.927,3.174,5.222c2.115,1.299,4.675,1.946,7.68,1.946
	c2.867,0,5.392-0.647,7.578-1.946c2.183-1.296,3.277-3.037,3.277-5.222v-19.79L347.733,147.312z"/>
<linearGradient id="SVGID_5_" gradientUnits="userSpaceOnUse" x1="289.5504" y1="178.9836" x2="311.7204" y2="118.0236" gradientTransform="matrix(1.0039 0 0 -1.0039 0.1922 516.5609)">
	<stop  offset="0" style="stop-color:#FFE7A5"/>
	<stop  offset="1" style="stop-color:#FFBF5C"/>
</linearGradient>
<path style="fill:url(#SVGID_5_);" d="M302.74,395.593V289.022l-30.326,41.7c-7.889,10.847-6.9,25.784,2.35,35.497L302.74,395.593z"
	/>
<linearGradient id="SVGID_6_" gradientUnits="userSpaceOnUse" x1="351.0594" y1="254.8733" x2="426.2094" y2="48.2133" gradientTransform="matrix(1.0039 0 0 -1.0039 0.1922 516.5609)">
	<stop  offset="0" style="stop-color:#FFE7A5"/>
	<stop  offset="1" style="stop-color:#FFBF5C"/>
</linearGradient>
<path style="fill:url(#SVGID_6_);" d="M477.364,276.4c0-24.272-17.546-44.987-41.486-48.98l-92.655-12.283V153.35
	c0-14.247-11.549-25.796-25.796-25.796l0,0c-14.247,0-25.796,11.549-25.796,25.796v99.686h0.01l-0.01,175.986h185.733v-85.507
	v-57.794L477.364,276.4z"/>
<linearGradient id="SVGID_7_" gradientUnits="userSpaceOnUse" x1="380.1692" y1="201.7836" x2="302.1692" y2="279.7836" gradientTransform="matrix(1.0039 0 0 -1.0039 0.1922 516.5609)">
	<stop  offset="0" style="stop-color:#FFE7A5;stop-opacity:0"/>
	<stop  offset="1" style="stop-color:#FFBF5C"/>
</linearGradient>
<path style="fill:url(#SVGID_7_);" d="M343.223,429.024h82.883l51.258-6.064v-79.443v-57.794V276.4
	c0-24.272-17.546-44.987-41.486-48.98l-92.655-12.283L343.223,429.024L343.223,429.024z"/>
<linearGradient id="SVGID_8_" gradientUnits="userSpaceOnUse" x1="340.6836" y1="97.398" x2="544.0136" y2="165.798" gradientTransform="matrix(1.0039 0 0 -1.0039 0.1922 516.5609)">
	<stop  offset="0" style="stop-color:#F2F2F2"/>
	<stop  offset="1" style="stop-color:#C3C3C3"/>
</linearGradient>
<path style="fill:url(#SVGID_8_);" d="M488.721,393.464v22.184c0,5.354-4.34,9.694-9.694,9.694H289.969
	c-5.354,0-9.694-4.34-9.694-9.694v-22.184c0-5.354,4.34-9.694,9.694-9.694h189.059C484.381,383.77,488.721,388.11,488.721,393.464z"
	/>
<linearGradient id="SVGID_9_" gradientUnits="userSpaceOnUse" x1="356.8754" y1="46.5844" x2="581.1454" y2="129.4044" gradientTransform="matrix(1.0039 0 0 -1.0039 0.1922 516.5609)">
	<stop  offset="0" style="stop-color:#62E1FB"/>
	<stop  offset="1" style="stop-color:#00A2F3"/>
</linearGradient>
<path style="fill:url(#SVGID_9_);" d="M501.896,418.472v83.419c0,5.583-4.526,10.109-10.109,10.109H277.209
	c-5.583,0-10.109-4.526-10.109-10.109v-83.419c0-5.584,4.526-10.109,10.109-10.109h214.577
	C497.369,408.362,501.896,412.888,501.896,418.472z"/>
<linearGradient id="SVGID_10_" gradientUnits="userSpaceOnUse" x1="345.9901" y1="22.2645" x2="274.8101" y2="93.4445" gradientTransform="matrix(1.0039 0 0 -1.0039 0.1922 516.5609)">
	<stop  offset="0" style="stop-color:#00A2F3;stop-opacity:0"/>
	<stop  offset="1" style="stop-color:#0075CD"/>
</linearGradient>
<path style="fill:url(#SVGID_10_);" d="M401.349,511.994h-72.05l-33.025-33.025c-5.079-4.659-8.265-11.355-8.265-18.782
	c0-14.087,11.416-25.503,25.503-25.503c7.439,0,14.123,3.174,18.782,8.253L401.349,511.994z"/>
<linearGradient id="SVGID_11_" gradientUnits="userSpaceOnUse" x1="312.0986" y1="72.103" x2="312.0986" y2="35.373" gradientTransform="matrix(1.0039 0 0 -1.0039 0.1922 516.5609)">
	<stop  offset="0" style="stop-color:#FFF465"/>
	<stop  offset="1" style="stop-color:#FFE600"/>
</linearGradient>
<circle style="fill:url(#SVGID_11_);" cx="313.515" cy="460.178" r="25.5"/>
<linearGradient id="SVGID_12_" gradientUnits="userSpaceOnUse" x1="312.0986" y1="45.153" x2="312.0986" y2="70.503" gradientTransform="matrix(1.0039 0 0 -1.0039 0.1922 516.5609)">
	<stop  offset="0" style="stop-color:#FFF465"/>
	<stop  offset="1" style="stop-color:#FFE600"/>
</linearGradient>
<circle style="fill:url(#SVGID_12_);" cx="313.515" cy="460.178" r="17.598"/>
<g>
	<circle style="fill:#FFB92D;" cx="306.829" cy="453.491" r="3.641"/>
	<circle style="fill:#FFB92D;" cx="320.201" cy="453.491" r="3.641"/>
	<circle style="fill:#FFB92D;" cx="306.829" cy="466.864" r="3.641"/>
	<circle style="fill:#FFB92D;" cx="320.201" cy="466.864" r="3.641"/>
</g>
<g>
</g>
<g>
</g>
<g>
</g>
<g>
</g>
<g>
</g>
<g>
</g>
<g>
</g>
<g>
</g>
<g>
</g>
<g>
</g>
<g>
</g>
<g>
</g>
<g>
</g>
<g>
</g>
<g>
</g>
</svg>
