<?xml version="1.0" encoding="iso-8859-1"?>
<!-- Generator: Adobe Illustrator 19.0.0, SVG Export Plug-In . SVG Version: 6.00 Build 0)  -->
<svg version="1.1" id="Capa_1" xmlns="http://www.w3.org/2000/svg" xmlns:xlink="http://www.w3.org/1999/xlink" x="0px" y="0px"
	 viewBox="0 0 512 512" style="enable-background:new 0 0 512 512;" xml:space="preserve">
<circle style="fill:#F94616;" cx="256" cy="256" r="256"/>
<path style="fill:#DB2C09;" d="M512,256c0-18.577-1.997-36.686-5.755-54.139L394,89.616L118.905,404.988l105.016,105.016
	C234.43,511.317,245.135,512,256,512C397.385,512,512,397.385,512,256z"/>
<rect x="147" y="89.62" style="fill:#FEC007;" width="247" height="299"/>
<rect x="256.55" y="89.62" style="fill:#FEB200;" width="137.45" height="299"/>
<circle style="fill:#FED44F;" cx="278" cy="219.62" r="87.5"/>
<path style="fill:#FED640;" d="M278,132.116c-0.008,0-0.016,0-0.024,0v174.999c0.008,0,0.016,0,0.024,0
	c48.325,0,87.5-39.175,87.5-87.5C365.5,171.291,326.325,132.116,278,132.116z"/>
<path style="fill:#FE9F00;" d="M113.5,388.616H171v-299h-27.175c-16.659,0-30.166,13.5-30.175,30.158L113.5,388.616z"/>
<circle style="fill:#303F9E;" cx="278" cy="173.85" r="19.999"/>
<path style="fill:#283592;" d="M278,153.854c-0.008,0-0.016,0.001-0.024,0.001v39.995c0.008,0,0.016,0.001,0.024,0.001
	c11.045,0,19.999-8.954,19.999-19.999C297.999,162.808,289.045,153.854,278,153.854z"/>
<rect x="262.13" y="201.79" style="fill:#303F9E;" width="31.744" height="83.59"/>
<rect x="277.98" y="201.79" style="fill:#283592;" width="15.896" height="83.59"/>
<path style="fill:#FEF5E0;" d="M141,416.116h253v-55H141c-15.188,0-27.5,12.312-27.5,27.5l0,0
	C113.5,403.804,125.812,416.116,141,416.116z"/>
<rect x="256.55" y="361.12" style="fill:#FEDFB1;" width="137.45" height="55"/>
<g>
</g>
<g>
</g>
<g>
</g>
<g>
</g>
<g>
</g>
<g>
</g>
<g>
</g>
<g>
</g>
<g>
</g>
<g>
</g>
<g>
</g>
<g>
</g>
<g>
</g>
<g>
</g>
<g>
</g>
</svg>
