<?xml version="1.0" encoding="iso-8859-1"?>
<!-- Generator: Adobe Illustrator 18.0.0, SVG Export Plug-In . SVG Version: 6.00 Build 0)  -->
<!DOCTYPE svg PUBLIC "-//W3C//DTD SVG 1.1//EN" "http://www.w3.org/Graphics/SVG/1.1/DTD/svg11.dtd">
<svg version="1.1" id="Capa_1" xmlns="http://www.w3.org/2000/svg" xmlns:xlink="http://www.w3.org/1999/xlink" x="0px" y="0px"
	 viewBox="0 0 313.725 313.725" style="enable-background:new 0 0 313.725 313.725;" xml:space="preserve">
<path d="M156.862,0C70.368,0,0,70.368,0,156.862s70.368,156.862,156.862,156.862s156.862-70.368,156.862-156.862
	S243.356,0,156.862,0z M290,156.862c0,32.443-11.671,62.209-31.027,85.333l-26.152-26.151v-6.289
	c8.084-1.966,14.095-9.234,14.102-17.924l0.006-27.646c0.002-2.874-0.668-5.711-1.955-8.281l-7.166-14.304h14.191
	c1.542,0,2.793-1.251,2.793-2.793v-12.849c0-1.542-1.251-2.793-2.793-2.793h-15.358c-1.169,0-2.214,0.729-2.619,1.824l-1.925,5.205
	l-13.703-32.112c-2.907-6.805-9.593-11.22-16.991-11.22h-89.077c-2.529,0-4.97,0.527-7.21,1.479L71.526,54.755
	c23.124-19.358,52.891-31.03,85.336-31.03C230.274,23.725,290,83.45,290,156.862z M93.503,180.904c-1.384,0-2.506-1.121-2.506-2.504
	v-11.467c0-1.383,1.122-2.504,2.506-2.504h26.561c1.384,0,2.506,1.121,2.506,2.504V178.4c0,1.383-1.122,2.504-2.506,2.504H93.503z
	 M101.864,134.192l4.652-10.898l10.898,10.898H101.864z M222.726,178.4c0,1.383-1.121,2.504-2.504,2.504H197.68l-6.524-6.524v-7.446
	c0-1.383,1.122-2.504,2.504-2.504h26.563c1.383,0,2.504,1.121,2.504,2.504V178.4z M150.966,134.192l-30.717-30.717h78.497
	l13.113,30.717H150.966z M23.725,156.862c0-32.443,11.671-62.209,31.026-85.332l36.386,36.385l-9.508,22.28l-1.925-5.206
	c-0.405-1.096-1.45-1.824-2.619-1.824H61.726c-1.542,0-2.793,1.251-2.793,2.793v12.849c0,1.542,1.251,2.793,2.793,2.793h14.192
	l-7.166,14.304c-1.287,2.57-1.957,5.407-1.956,8.281l0.007,27.646c0.006,8.689,6.017,15.958,14.102,17.924v11.522
	c0,3.086,2.5,5.585,5.583,5.585h17.873c3.084,0,5.586-2.499,5.586-5.585v-10.98h83.575l10.255,10.255v0.725
	c0,3.086,2.502,5.585,5.588,5.585h0.724l32.109,32.108C219.073,278.328,189.308,290,156.862,290
	C83.45,290,23.725,230.274,23.725,156.862z"/>
<g>
</g>
<g>
</g>
<g>
</g>
<g>
</g>
<g>
</g>
<g>
</g>
<g>
</g>
<g>
</g>
<g>
</g>
<g>
</g>
<g>
</g>
<g>
</g>
<g>
</g>
<g>
</g>
<g>
</g>
</svg>
