<?xml version="1.0" encoding="iso-8859-1"?>
<!-- Generator: Adobe Illustrator 19.0.0, SVG Export Plug-In . SVG Version: 6.00 Build 0)  -->
<svg version="1.1" id="Capa_1" xmlns="http://www.w3.org/2000/svg" xmlns:xlink="http://www.w3.org/1999/xlink" x="0px" y="0px"
	 viewBox="0 0 512.001 512.001" style="enable-background:new 0 0 512.001 512.001;" xml:space="preserve">
<path style="fill:#FFCC4D;" d="M509.565,258.436c0,139.15-112.596,253.565-253.565,253.565
	c-140.603,0-253.565-114.069-253.565-253.565c0-140.04,113.525-253.565,253.565-253.565
	C396.302,4.871,509.565,118.636,509.565,258.436z"/>
<path style="fill:#C8BEB9;" d="M178.026,425.795v55.202c0,0.699-0.063,1.377-0.177,2.045c-0.428,2.567-1.67,4.884-3.444,6.647
	c-2.223,2.233-5.312,3.621-8.693,3.621c-6.772,0-12.303-5.541-12.303-12.314v-55.202c0-6.772,5.531-12.314,12.303-12.314
	c0.063,0,0.115,0,0.177,0.01C172.578,413.575,178.026,419.085,178.026,425.795z"/>
<path style="fill:#EBE1DC;" d="M178.026,425.795v55.202c0,0.699-0.063,1.377-0.177,2.045c-6.689-0.083-12.136-5.593-12.136-12.303
	v-55.213c0-0.689,0.063-1.367,0.177-2.035C172.578,413.575,178.026,419.085,178.026,425.795z"/>
<path style="fill:#464646;" d="M187.482,393.748v20.474c0,0.657-0.042,1.304-0.136,1.941c-0.95,7.336-7.263,13.044-14.849,13.044
	h-13.566c-8.244,0-14.985-6.741-14.985-14.985v-20.474c0-8.233,6.741-14.975,14.985-14.975h13.566
	C180.741,378.774,187.482,385.515,187.482,393.748z"/>
<path style="fill:#5A5A5A;" d="M187.482,393.748v20.474c0,0.657-0.042,1.304-0.136,1.941H175.68
	c-8.244,0-14.985-6.741-14.985-14.985v-20.474c0-0.657,0.042-1.304,0.125-1.931h11.677
	C180.741,378.774,187.482,385.515,187.482,393.748z"/>
<path style="fill:#C8BEB9;" d="M358.597,425.795v55.202c0,0.699-0.063,1.377-0.177,2.045c-0.428,2.567-1.67,4.884-3.444,6.647
	c-2.223,2.233-5.311,3.621-8.693,3.621c-6.772,0-12.303-5.541-12.303-12.314v-55.202c0-6.772,5.531-12.314,12.303-12.314
	c0.063,0,0.115,0,0.177,0.01C353.15,413.575,358.597,419.085,358.597,425.795z"/>
<path style="fill:#EBE1DC;" d="M358.597,425.795v55.202c0,0.699-0.063,1.377-0.177,2.045c-6.689-0.083-12.136-5.593-12.136-12.303
	v-55.213c0-0.689,0.063-1.367,0.177-2.035C353.15,413.575,358.597,419.085,358.597,425.795z"/>
<path style="fill:#464646;" d="M368.054,393.748v20.474c0,0.657-0.042,1.304-0.136,1.941c-0.95,7.336-7.263,13.044-14.849,13.044
	h-13.566c-8.244,0-14.985-6.741-14.985-14.985v-20.474c0-8.233,6.741-14.975,14.985-14.975h13.566
	C361.313,378.774,368.054,385.515,368.054,393.748z"/>
<path style="fill:#5A5A5A;" d="M368.054,393.748v20.474c0,0.657-0.042,1.304-0.136,1.941h-11.667
	c-8.244,0-14.985-6.741-14.985-14.985v-20.474c0-0.657,0.042-1.304,0.125-1.931h11.677
	C361.313,378.774,368.054,385.515,368.054,393.748z"/>
<path style="fill:#82AAF0;" d="M441.591,43.828v314.246c0,24.105-19.723,43.828-43.828,43.828H114.238
	c-24.105,0-43.828-19.723-43.828-43.828V43.828c0-23.062,18.053-42.106,40.718-43.723C112.151,0.042,113.195,0,114.238,0h283.524
	C421.868,0,441.591,19.723,441.591,43.828z"/>
<path style="fill:#91B9FF;" d="M441.591,43.828v314.141c-1.023,0.063-2.066,0.104-3.11,0.104H154.956
	c-24.105,0-43.828-19.723-43.828-43.828V0.104C112.151,0.042,113.195,0,114.238,0h283.524C421.868,0,441.591,19.723,441.591,43.828z
	"/>
<circle style="fill:#5F82C3;" cx="165.346" cy="316.948" r="49.941"/>
<path style="fill:#C8BEB9;" d="M205.753,316.96c0,18.562-12.525,34.21-29.605,38.938c-3.436,0.959-7.066,1.465-10.816,1.465
	c-22.313,0-40.403-18.09-40.403-40.403c0-19.067,13.189-35.048,30.931-39.286c0.541-0.14,1.081-0.262,1.623-0.366
	c2.547-0.506,5.163-0.768,7.85-0.768c2.686,0,5.321,0.262,7.85,0.768C191.762,280.952,205.753,297.316,205.753,316.96z"/>
<path style="fill:#EBE1DC;" d="M205.749,316.963c0,2.686-0.256,5.315-0.767,7.843c-2.955,15.005-14.224,27.041-28.831,31.091
	c-19.922-5.13-34.643-23.218-34.643-44.746c0-13.186,5.513-25.065,14.352-33.477c0.539-0.142,1.08-0.256,1.62-0.369
	c2.543-0.498,5.173-0.767,7.858-0.767c2.685,0,5.315,0.27,7.843,0.767c16.043,3.155,28.661,15.773,31.801,31.801
	C205.493,311.648,205.749,314.277,205.749,316.963z"/>
<g>
	<path style="fill:#5F82C3;" d="M165.342,260.865c-3.779,0-6.841-3.063-6.841-6.841v-8.665c0-3.779,3.063-6.841,6.841-6.841
		c3.779,0,6.841,3.063,6.841,6.841v8.665C172.183,257.803,169.12,260.865,165.342,260.865z"/>
	<path style="fill:#5F82C3;" d="M137.299,268.379c-3.272,1.89-7.456,0.768-9.346-2.504l-4.333-7.505
		c-1.89-3.272-0.768-7.456,2.504-9.345c3.272-1.89,7.456-0.768,9.346,2.504l4.333,7.505
		C141.693,262.307,140.572,266.49,137.299,268.379z"/>
	<path style="fill:#5F82C3;" d="M116.771,288.907c-1.89,3.272-6.073,4.393-9.346,2.504l-7.505-4.333
		c-3.272-1.89-4.393-6.073-2.504-9.346c1.89-3.272,6.073-4.393,9.346-2.504l7.505,4.333
		C117.54,281.451,118.661,285.634,116.771,288.907z"/>
	<path style="fill:#5F82C3;" d="M109.258,316.949c0,3.779-3.063,6.841-6.841,6.841h-8.665c-3.779,0-6.841-3.063-6.841-6.841
		c0-3.779,3.063-6.841,6.841-6.841h8.665C106.195,310.108,109.258,313.171,109.258,316.949z"/>
	<path style="fill:#5F82C3;" d="M221.426,316.949c0-3.779,3.063-6.841,6.841-6.841h8.665c3.779,0,6.841,3.063,6.841,6.841
		c0,3.779-3.063,6.841-6.841,6.841h-8.665C224.488,323.791,221.426,320.728,221.426,316.949z"/>
	<path style="fill:#5F82C3;" d="M213.911,288.908c-1.89-3.272-0.768-7.456,2.504-9.346l7.505-4.333
		c3.272-1.89,7.456-0.768,9.345,2.504c1.889,3.272,0.768,7.456-2.504,9.346l-7.505,4.333
		C219.984,293.301,215.801,292.18,213.911,288.908z"/>
	<path style="fill:#5F82C3;" d="M193.383,268.38c-3.272-1.89-4.393-6.073-2.504-9.346l4.333-7.505
		c1.89-3.272,6.073-4.393,9.345-2.504c3.272,1.89,4.393,6.073,2.504,9.346l-4.333,7.505
		C200.839,269.148,196.656,270.269,193.383,268.38z"/>
</g>
<path style="fill:#82AAF0;" d="M211.539,317.721c0,2.836-1.168,5.427-3.038,7.306c-1.879,1.87-4.469,3.038-7.307,3.038h-73.201
	c-5.691,0-10.344-4.661-10.344-10.343c0-2.846,1.168-5.437,3.038-7.307c1.87-1.879,4.46-3.047,7.307-3.047h73.201
	C206.878,307.367,211.539,312.028,211.539,317.721z"/>
<path style="fill:#91B9FF;" d="M211.539,317.721h-66.825c-5.691,0-10.343-4.661-10.343-10.353h66.825
	C206.878,307.367,211.539,312.028,211.539,317.721z"/>
<circle style="fill:#5F82C3;" cx="346.657" cy="316.948" r="49.941"/>
<path style="fill:#C8BEB9;" d="M387.071,316.96c0,18.562-12.525,34.21-29.605,38.938c-3.436,0.959-7.066,1.465-10.816,1.465
	c-22.313,0-40.403-18.09-40.403-40.403c0-19.067,13.189-35.048,30.931-39.286c0.541-0.14,1.081-0.262,1.623-0.366
	c2.547-0.506,5.163-0.768,7.85-0.768c2.686,0,5.321,0.262,7.85,0.768C373.08,280.952,387.071,297.316,387.071,316.96z"/>
<path style="fill:#EBE1DC;" d="M387.067,316.963c0,2.686-0.256,5.315-0.767,7.843c-2.955,15.005-14.224,27.041-28.831,31.091
	c-19.922-5.13-34.643-23.218-34.643-44.746c0-13.186,5.513-25.065,14.352-33.477c0.539-0.142,1.08-0.256,1.62-0.369
	c2.543-0.498,5.173-0.767,7.858-0.767c2.686,0,5.315,0.27,7.843,0.767c16.043,3.155,28.661,15.773,31.801,31.801
	C386.811,311.648,387.067,314.277,387.067,316.963z"/>
<g>
	<path style="fill:#5F82C3;" d="M346.659,260.865c-3.779,0-6.841-3.063-6.841-6.841v-8.665c0-3.779,3.063-6.841,6.841-6.841
		c3.779,0,6.841,3.063,6.841,6.841v8.665C353.501,257.803,350.438,260.865,346.659,260.865z"/>
	<path style="fill:#5F82C3;" d="M318.617,268.379c-3.272,1.89-7.456,0.768-9.346-2.504l-4.333-7.505
		c-1.89-3.272-0.768-7.456,2.504-9.345c3.272-1.89,7.456-0.768,9.346,2.504l4.333,7.505
		C323.011,262.307,321.889,266.49,318.617,268.379z"/>
	<path style="fill:#5F82C3;" d="M298.089,288.907c-1.89,3.272-6.073,4.393-9.346,2.504l-7.505-4.333
		c-3.272-1.89-4.393-6.073-2.504-9.346c1.89-3.272,6.073-4.393,9.345-2.504l7.505,4.333
		C298.858,281.451,299.979,285.634,298.089,288.907z"/>
	<path style="fill:#5F82C3;" d="M290.576,316.949c0,3.779-3.063,6.841-6.841,6.841h-8.665c-3.779,0-6.841-3.063-6.841-6.841
		c0-3.779,3.063-6.841,6.841-6.841h8.665C287.513,310.108,290.576,313.171,290.576,316.949z"/>
	<path style="fill:#5F82C3;" d="M402.743,316.949c0-3.779,3.063-6.841,6.841-6.841h8.665c3.779,0,6.841,3.063,6.841,6.841
		c0,3.779-3.063,6.841-6.841,6.841h-8.665C405.806,323.791,402.743,320.728,402.743,316.949z"/>
	<path style="fill:#5F82C3;" d="M395.229,288.908c-1.89-3.272-0.768-7.456,2.504-9.346l7.505-4.333
		c3.272-1.89,7.456-0.768,9.346,2.504c1.89,3.272,0.768,7.456-2.504,9.346l-7.505,4.333
		C401.302,293.301,397.119,292.18,395.229,288.908z"/>
	<path style="fill:#5F82C3;" d="M374.702,268.38c-3.272-1.89-4.393-6.073-2.504-9.346l4.333-7.505
		c1.89-3.272,6.073-4.393,9.346-2.504c3.272,1.89,4.393,6.073,2.504,9.346l-4.333,7.505
		C382.157,269.148,377.973,270.269,374.702,268.38z"/>
</g>
<path style="fill:#82AAF0;" d="M392.857,317.721c0,2.836-1.168,5.427-3.038,7.306c-1.879,1.87-4.469,3.038-7.307,3.038h-73.201
	c-5.691,0-10.344-4.661-10.344-10.343c0-2.846,1.168-5.437,3.038-7.307c1.87-1.879,4.46-3.047,7.307-3.047h73.201
	C388.196,307.367,392.857,312.028,392.857,317.721z"/>
<path style="fill:#91B9FF;" d="M392.857,317.721h-66.825c-5.691,0-10.343-4.661-10.343-10.353h66.825
	C388.196,307.367,392.857,312.028,392.857,317.721z"/>
<rect x="70.406" y="101.827" style="fill:#6E96DC;" width="371.18" height="19.827"/>
<path style="fill:#5F82C3;" d="M310.973,53.901c0,0.921-0.063,1.817-0.188,2.713c-2.358,16.552-25.994,29.549-54.785,29.549
	c-30.356,0-54.973-14.445-54.973-32.263c0-13.142,13.388-24.454,32.6-29.484c6.835-1.791,14.411-2.778,22.373-2.778
	C286.357,21.639,310.973,36.085,310.973,53.901z"/>
<path style="fill:#6E96DC;" d="M310.973,53.901c0,0.921-0.063,1.817-0.188,2.713c-6.835,1.791-14.411,2.778-22.373,2.778
	c-30.356,0-54.973-14.445-54.973-32.263c0-0.909,0.063-1.817,0.188-2.713c6.835-1.791,14.411-2.778,22.373-2.778
	C286.357,21.639,310.973,36.085,310.973,53.901z"/>
<path style="fill:#FF3C2D;" d="M190.668,202.343c0,2.304-0.314,4.533-0.897,6.642c-2.902,10.681-12.671,18.536-24.281,18.536
	c-13.913,0-25.193-11.265-25.193-25.178c0-3.62,0.912-6.627,2.798-11.22c1.452-3.576,3.501-8.094,6.164-14.572
	c0.449-1.093,2.049-0.823,2.139,0.344l0.314,11.13c0.09,1.182,1.706,1.437,2.139,0.344l10.173-31.118
	c0.464-1.407,2.453-1.407,2.918,0l10.218,31.118c0.434,1.093,2.049,0.838,2.139-0.329l-2.887-18.222
	c-0.104-1.167,1.452-1.661,2.049-0.643C186.689,182.924,190.668,195.94,190.668,202.343z"/>
<path style="fill:#FF563C;" d="M190.668,202.343c0,2.304-0.314,4.533-0.897,6.642c-2.947,0.583-5.999,0.883-9.111,0.883
	c-15.349,0-28.993-7.361-37.566-18.746c1.452-3.576,3.501-8.094,6.164-14.572c0.449-1.093,2.049-0.823,2.139,0.344l0.314,11.13
	c0.09,1.182,1.706,1.437,2.139,0.344l10.173-31.118c0.464-1.407,2.453-1.407,2.918,0l10.218,31.118
	c0.434,1.093,2.049,0.838,2.139-0.329l-2.887-18.222c-0.104-1.167,1.452-1.661,2.049-0.643
	C186.689,182.924,190.668,195.94,190.668,202.343z"/>
<path style="fill:#5085D4;" d="M367.389,214.593c-5.034,7.935-13.797,12.614-24.743,11.453
	c-18.249-2.108-28.031-22.702-18.906-38.64l7.539-13.156l8.383-14.623c2.581-4.521,9.091-4.587,11.773-0.101l16.41,27.458
	C373.259,196.057,372.432,206.682,367.389,214.593z"/>
<path style="fill:#6092E0;" d="M367.389,214.593c-20.088-0.269-36.279-16.646-36.279-36.819c0-1.197,0.051-2.361,0.169-3.525
	l8.383-14.623c2.581-4.521,9.091-4.587,11.773-0.101l16.41,27.458C373.259,196.057,372.432,206.682,367.389,214.593z"/>
<g>
</g>
<g>
</g>
<g>
</g>
<g>
</g>
<g>
</g>
<g>
</g>
<g>
</g>
<g>
</g>
<g>
</g>
<g>
</g>
<g>
</g>
<g>
</g>
<g>
</g>
<g>
</g>
<g>
</g>
</svg>
